<svg width="87" height="87" viewBox="0 0 87 87" fill="none" xmlns="http://www.w3.org/2000/svg">
<path d="M36.935 4.74155C39.1901 -1.35278 47.8099 -1.35279 50.065 4.74154L57.6431 25.2212C58.3521 27.1372 59.8628 28.6479 61.7788 29.3569L82.2585 36.935C88.3528 39.1901 88.3528 47.8099 82.2585 50.065L61.7788 57.6431C59.8628 58.3521 58.3521 59.8628 57.6431 61.7788L50.065 82.2585C47.8099 88.3528 39.1901 88.3528 36.935 82.2585L29.3569 61.7788C28.6479 59.8628 27.1372 58.3521 25.2212 57.6431L4.74155 50.065C-1.35278 47.8099 -1.35279 39.1901 4.74154 36.935L25.2212 29.3569C27.1372 28.6479 28.6479 27.1372 29.3569 25.2212L36.935 4.74155Z" fill="white"/>
</svg>
